# This file uses centimeters as units for non-parametric coordinates.

mtllib PunchingBag.mtl
g default
v -0.251236 -0.073368 1.279852
v 0.251236 -0.073368 1.279852
v -0.251236 0.429105 1.279852
v 0.251236 0.429105 1.279852
v 0.319070 0.177868 1.295676
v 0.000000 0.496938 1.295676
v -0.000000 -0.141201 1.295676
v -0.319070 0.177868 1.295676
v 0.000000 0.177868 1.324125
v 0.003441 0.177868 0.338590
v 0.003441 0.629876 0.338590
v 0.341423 0.503835 0.338590
v 0.442405 0.177868 0.338590
v 0.328771 -0.141262 0.338590
v 0.003441 -0.261096 0.338590
v -0.334541 -0.151102 0.338590
v -0.435523 0.177868 0.338590
v -0.334541 0.503835 0.338590
v 0.000000 0.613864 1.201559
v -0.319184 0.497052 1.199996
v -0.435995 0.177868 1.201559
v -0.319184 -0.141315 1.199996
v 0.000000 -0.258127 1.201559
v 0.319184 -0.141315 1.199996
v 0.435995 0.177868 1.201559
v 0.319184 0.497052 1.199996
v 0.000000 0.002521 1.316532
v -0.175347 0.177868 1.316532
v 0.149994 -0.119216 1.289982
v 0.297084 0.027875 1.289982
v 0.175347 0.177868 1.316532
v 0.000000 0.353216 1.316532
v 0.297084 0.327862 1.289982
v 0.149994 0.474952 1.289982
v -0.297084 0.327862 1.289982
v -0.149994 0.474952 1.289982
v -0.291845 0.469713 1.257226
v 0.000000 0.577411 1.263479
v -0.174013 0.584540 1.200777
v 0.291845 0.469713 1.257226
v 0.174013 0.584540 1.200777
v 0.003441 0.355694 0.338590
v 0.254160 0.177868 0.338590
v 0.212219 0.596518 0.338590
v 0.412974 0.355694 0.338590
v 0.199567 -0.221825 0.338590
v 0.412974 -0.004736 0.338590
v 0.003441 -0.004736 0.338590
v 0.174013 -0.228803 1.200777
v 0.000000 -0.221674 1.263479
v 0.291845 -0.113976 1.257226
v -0.174013 -0.228803 1.200777
v -0.291845 -0.113976 1.257226
v 0.406672 0.003856 1.200777
v 0.399543 0.177868 1.263479
v 0.406672 0.351881 1.200777
v -0.406092 -0.004736 0.338590
v -0.205337 -0.231665 0.338590
v -0.247278 0.177868 0.338590
v -0.406672 0.003856 1.200777
v -0.399543 0.177868 1.263479
v -0.406672 0.351881 1.200777
v -0.406092 0.355695 0.338590
v -0.205337 0.596518 0.338590
v 0.447656 0.177868 1.107766
v 0.327929 0.505798 1.107766
v 0.000000 -0.269787 1.107766
v 0.327929 -0.150061 1.107766
v -0.327929 -0.150061 1.107766
v -0.454023 0.177868 1.107766
v -0.327929 0.505798 1.107766
v 0.000000 0.625524 1.107766
v -0.149994 -0.119216 1.289982
v -0.297084 0.027875 1.289982
v -0.163194 0.014674 1.309386
v 0.163194 0.014674 1.309386
v 0.163194 0.341063 1.309386
v -0.163194 0.341063 1.309386
v -0.159003 0.550232 1.260353
v 0.159003 0.550232 1.260353
v 0.237350 0.355694 0.338590
v 0.237350 -0.004736 0.338590
v 0.159003 -0.194495 1.260353
v -0.159003 -0.194495 1.260353
v 0.372364 0.018866 1.260353
v 0.372364 0.336871 1.260353
v -0.230467 -0.004736 0.338590
v -0.372364 0.018866 1.260353
v -0.372364 0.336871 1.260353
v -0.230467 0.355694 0.338590
v 0.417647 0.356683 1.107766
v 0.178814 -0.239778 1.107766
v -0.178814 -0.239778 1.107766
v -0.420353 -0.004736 1.107766
v -0.178814 0.595515 1.107766
v -0.417647 0.356683 1.107766
v 0.417646 -0.000946 1.107766
v 0.178814 0.595515 1.107766
vt 0.375000 0.000000
vt 0.437500 0.000000
vt 0.437500 0.062500
vt 0.377695 0.062500
vt 0.500000 0.000000
vt 0.500000 0.062500
vt 0.500000 0.125000
vt 0.437500 0.125000
vt 0.377695 0.125000
vt 0.562500 0.000000
vt 0.562500 0.062500
vt 0.625000 0.000000
vt 0.622305 0.062500
vt 0.622305 0.125000
vt 0.562500 0.125000
vt 0.562500 0.187500
vt 0.500000 0.187500
vt 0.622305 0.187500
vt 0.625000 0.250000
vt 0.562500 0.247305
vt 0.500000 0.247305
vt 0.437500 0.187500
vt 0.377695 0.187500
vt 0.437500 0.247305
vt 0.375000 0.250000
vt 0.437500 0.301722
vt 0.375000 0.301722
vt 0.500000 0.301722
vt 0.500000 0.346097
vt 0.437500 0.346097
vt 0.375000 0.353444
vt 0.562500 0.301722
vt 0.625000 0.301722
vt 0.625000 0.353444
vt 0.562500 0.346097
vt 0.500000 0.515625
vt 0.509257 0.439800
vt 0.636557 0.349528
vt 0.627300 0.428243
vt 0.500000 0.398114
vt 0.636557 0.324057
vt 0.773114 0.250000
vt 0.733391 0.228007
vt 0.773114 0.125000
vt 0.625000 0.851886
vt 0.571757 0.797859
vt 0.599528 0.613443
vt 0.699057 0.488443
vt 0.500000 0.851886
vt 0.490743 0.622700
vt 0.500000 0.903903
vt 0.562500 0.903903
vt 0.562500 0.948278
vt 0.500000 0.948278
vt 0.625000 0.896556
vt 0.625000 0.948278
vt 0.625000 1.000000
vt 0.562500 1.000000
vt 0.500000 1.000000
vt 0.375000 0.896556
vt 0.437500 0.903903
vt 0.437500 0.948278
vt 0.375000 0.948278
vt 0.437500 1.000000
vt 0.375000 1.000000
vt 0.676722 0.000000
vt 0.676722 0.062500
vt 0.728444 0.000000
vt 0.721097 0.062500
vt 0.721097 0.125000
vt 0.676722 0.125000
vt 0.676722 0.187500
vt 0.721097 0.187500
vt 0.728444 0.250000
vt 0.676722 0.250000
vt 0.226886 0.000000
vt 0.266609 0.146993
vt 0.363443 0.400472
vt 0.363443 0.425943
vt 0.226886 0.125000
vt 0.372700 0.384257
vt 0.271556 0.000000
vt 0.323278 0.000000
vt 0.323278 0.062500
vt 0.278903 0.062500
vt 0.323278 0.125000
vt 0.278903 0.125000
vt 0.323278 0.187500
vt 0.278903 0.187500
vt 0.323278 0.250000
vt 0.271556 0.250000
vt 0.400472 0.386557
vt 0.300943 0.261557
vt 0.375000 0.398114
vt 0.428243 0.389641
vt 0.750779 0.125000
vt 0.750779 0.187500
vt 0.750779 0.250000
vt 0.562500 0.874221
vt 0.500000 0.874221
vt 0.625000 0.874221
vt 0.375000 0.874221
vt 0.437500 0.874221
vt 0.375000 0.851886
vt 0.437500 0.851886
vt 0.249221 0.062500
vt 0.249221 0.125000
vt 0.249221 0.000000
vt 0.375000 0.375779
vt 0.437500 0.375779
vt 0.500000 0.375779
vt 0.249221 0.187500
vt 0.226886 0.187500
vt 0.249221 0.250000
vt 0.226886 0.250000
vt 0.750779 0.062500
vt 0.750779 0.000000
vt 0.773114 0.000000
vt 0.773114 0.062500
vt 0.562500 0.375779
vt 0.562500 0.398114
vt 0.625000 0.375779
vt 0.625000 0.398114
vn -0.221074 -0.221074 0.949870
vn -0.110815 -0.230748 0.966683
vn -0.091531 -0.091531 0.991587
vn -0.230748 -0.110815 0.966683
vn -0.000000 -0.237980 0.971270
vn 0.000000 -0.091178 0.995835
vn 0.000000 0.000000 1.000000
vn -0.091178 0.000000 0.995835
vn -0.237980 0.000000 0.971270
vn 0.110815 -0.230748 0.966683
vn 0.091531 -0.091531 0.991587
vn 0.221074 -0.221074 0.949870
vn 0.230748 -0.110815 0.966683
vn 0.237980 -0.000000 0.971270
vn 0.091178 0.000000 0.995835
vn 0.091531 0.091531 0.991587
vn 0.000000 0.091178 0.995835
vn 0.230748 0.110815 0.966683
vn 0.221074 0.221074 0.949870
vn 0.110815 0.230748 0.966683
vn -0.000000 0.237980 0.971270
vn -0.091531 0.091531 0.991587
vn -0.230748 0.110815 0.966683
vn -0.110815 0.230748 0.966683
vn -0.221074 0.221074 0.949870
vn -0.229955 0.623624 0.747137
vn -0.487050 0.487050 0.724959
vn -0.000000 0.650022 0.759915
vn -0.000000 0.957718 0.287709
vn -0.330149 0.897041 0.293801
vn -0.674433 0.674434 0.300465
vn 0.229955 0.623623 0.747137
vn 0.487050 0.487050 0.724959
vn 0.674433 0.674433 0.300465
vn 0.330149 0.897041 0.293801
vn -0.000000 0.000000 -1.000000
vn -0.000000 0.000000 -1.000000
vn -0.000000 0.000000 -1.000000
vn -0.000000 0.000000 -1.000000
vn 0.000436 0.947905 -0.318553
vn 0.337541 0.900143 -0.275333
vn 0.727659 0.664120 -0.171631
vn 0.927325 0.313064 -0.205084
vn 0.976822 0.000001 -0.214056
vn 0.700279 -0.692778 -0.172242
vn 0.333846 -0.899546 -0.281716
vn -0.000000 0.000000 -1.000000
vn 0.921558 -0.333206 -0.199261
vn 0.012746 -0.950315 -0.311029
vn -0.000000 0.000000 -1.000000
vn -0.000000 -0.957718 0.287708
vn 0.330149 -0.897041 0.293801
vn 0.229955 -0.623624 0.747137
vn 0.000000 -0.650023 0.759915
vn 0.674433 -0.674433 0.300465
vn 0.487050 -0.487050 0.724958
vn -0.669865 -0.675947 0.307207
vn -0.330149 -0.897041 0.293801
vn -0.229955 -0.623624 0.747137
vn -0.487050 -0.487050 0.724958
vn 0.623624 -0.229955 0.747137
vn 0.897041 -0.330148 0.293801
vn 0.957718 -0.000000 0.287709
vn 0.650023 0.000000 0.759915
vn 0.623624 0.229955 0.747137
vn 0.897041 0.330148 0.293801
vn -0.711933 -0.680576 -0.173111
vn -0.922828 -0.319627 -0.215007
vn -0.000000 0.000000 -1.000000
vn -0.317593 -0.907432 -0.275139
vn -0.974158 0.003658 -0.225840
vn -0.000000 0.000000 -1.000000
vn -0.623624 -0.229955 0.747137
vn -0.889668 -0.330973 0.314560
vn -0.650022 0.000000 0.759915
vn -0.950527 0.002302 0.310634
vn -0.623624 0.229955 0.747137
vn -0.892409 0.334173 0.303207
vn 0.000000 0.000000 -1.000000
vn -0.922619 0.320736 -0.214249
vn -0.726264 0.664043 -0.177729
vn -0.336306 0.899822 -0.277884
vn 0.999971 -0.000000 0.007596
vn 0.946574 0.322245 0.012442
vn 0.732507 0.680349 0.023652
vn 0.340998 -0.940058 0.003397
vn 0.011186 -0.999935 0.002225
vn 0.708792 -0.705356 0.009330
vn -0.719541 -0.694234 0.017295
vn -0.324131 -0.945936 0.012007
vn -0.944295 -0.329049 0.005836
vn -0.999993 0.003712 -0.000643
vn -0.733189 0.679793 0.017766
vn -0.342377 0.939331 0.020875
vn -0.000414 0.999832 0.018343
vn -0.943897 0.330205 0.004835
vn 0.940731 -0.339028 0.009201
vn 0.341433 0.939610 0.023589
s 1
g boxingBag
usemtl blinn1SG
f 1/1/1 73/2/2 75/3/3 74/4/4
f 73/2/2 7/5/5 27/6/6 75/3/3
f 75/3/3 27/6/6 9/7/7 28/8/8
f 74/4/4 75/3/3 28/8/8 8/9/9
f 7/5/5 29/10/10 76/11/11 27/6/6
f 29/10/10 2/12/12 30/13/13 76/11/11
f 76/11/11 30/13/13 5/14/14 31/15/15
f 27/6/6 76/11/11 31/15/15 9/7/7
f 9/7/7 31/15/15 77/16/16 32/17/17
f 31/15/15 5/14/14 33/18/18 77/16/16
f 77/16/16 33/18/18 4/19/19 34/20/20
f 32/17/17 77/16/16 34/20/20 6/21/21
f 8/9/9 28/8/8 78/22/22 35/23/23
f 28/8/8 9/7/7 32/17/17 78/22/22
f 78/22/22 32/17/17 6/21/21 36/24/24
f 35/23/23 78/22/22 36/24/24 3/25/25
f 3/25/25 36/24/24 79/26/26 37/27/27
f 36/24/24 6/21/21 38/28/28 79/26/26
f 79/26/26 38/28/28 19/29/29 39/30/30
f 37/27/27 79/26/26 39/30/30 20/31/31
f 6/21/21 34/20/20 80/32/32 38/28/28
f 34/20/20 4/19/19 40/33/33 80/32/32
f 80/32/32 40/33/33 26/34/34 41/35/35
f 38/28/28 80/32/32 41/35/35 19/29/29
f 10/36/36 42/37/37 81/38/38 43/39/39
f 42/37/37 11/40/40 44/41/41 81/38/38
f 81/38/38 44/41/41 12/42/42 45/43/43
f 43/39/39 81/38/38 45/43/43 13/44/44
f 14/45/45 46/46/46 82/47/47 47/48/48
f 46/46/46 15/49/49 48/50/50 82/47/47
f 82/47/47 48/50/50 10/36/36 43/39/39
f 47/48/48 82/47/47 43/39/39 13/44/44
f 23/51/51 49/52/52 83/53/53 50/54/54
f 49/52/52 24/55/55 51/56/56 83/53/53
f 83/53/53 51/56/56 2/57/12 29/58/10
f 50/54/54 83/53/53 29/58/10 7/59/5
f 22/60/57 52/61/58 84/62/59 53/63/60
f 52/61/58 23/51/51 50/54/54 84/62/59
f 84/62/59 50/54/54 7/59/5 73/64/2
f 53/63/60 84/62/59 73/64/2 1/65/1
f 2/12/12 51/66/56 85/67/61 30/13/13
f 51/66/56 24/68/55 54/69/62 85/67/61
f 85/67/61 54/69/62 25/70/63 55/71/64
f 30/13/13 85/67/61 55/71/64 5/14/14
f 5/14/14 55/71/64 86/72/65 33/18/18
f 55/71/64 25/70/63 56/73/66 86/72/65
f 86/72/65 56/73/66 26/74/34 40/75/33
f 33/18/18 86/72/65 40/75/33 4/19/19
f 16/76/67 57/77/68 87/78/69 58/79/70
f 57/77/68 17/80/71 59/81/72 87/78/69
f 87/78/69 59/81/72 10/36/36 48/50/50
f 58/79/70 87/78/69 48/50/50 15/49/49
f 22/82/57 53/83/60 88/84/73 60/85/74
f 53/83/60 1/1/1 74/4/4 88/84/73
f 88/84/73 74/4/4 8/9/9 61/86/75
f 60/85/74 88/84/73 61/86/75 21/87/76
f 21/87/76 61/86/75 89/88/77 62/89/78
f 61/86/75 8/9/9 35/23/23 89/88/77
f 89/88/77 35/23/23 3/25/25 37/90/27
f 62/89/78 89/88/77 37/90/27 20/91/31
f 10/36/36 59/81/72 90/92/79 42/37/37
f 59/81/72 17/80/71 63/93/80 90/92/79
f 90/92/79 63/93/80 18/94/81 64/95/82
f 42/37/37 90/92/79 64/95/82 11/40/40
f 25/70/63 65/96/83 91/97/84 56/73/66
f 65/96/83 13/44/44 45/43/43 91/97/84
f 91/97/84 45/43/43 12/42/42 66/98/85
f 56/73/66 91/97/84 66/98/85 26/74/34
f 15/49/49 46/46/46 92/99/86 67/100/87
f 46/46/46 14/45/45 68/101/88 92/99/86
f 92/99/86 68/101/88 24/55/55 49/52/52
f 67/100/87 92/99/86 49/52/52 23/51/51
f 22/60/57 69/102/89 93/103/90 52/61/58
f 69/102/89 16/104/67 58/105/70 93/103/90
f 93/103/90 58/105/70 15/49/49 67/100/87
f 52/61/58 93/103/90 67/100/87 23/51/51
f 17/80/71 57/77/68 94/106/91 70/107/92
f 57/77/68 16/76/67 69/108/89 94/106/91
f 94/106/91 69/108/89 22/82/57 60/85/74
f 70/107/92 94/106/91 60/85/74 21/87/76
f 18/94/81 71/109/93 95/110/94 64/95/82
f 71/109/93 20/31/31 39/30/30 95/110/94
f 95/110/94 39/30/30 19/29/29 72/111/95
f 64/95/82 95/110/94 72/111/95 11/40/40
f 17/80/71 70/107/92 96/112/96 63/113/80
f 70/107/92 21/87/76 62/89/78 96/112/96
f 96/112/96 62/89/78 20/91/31 71/114/93
f 63/113/80 96/112/96 71/114/93 18/115/81
f 25/70/63 54/69/62 97/116/97 65/96/83
f 54/69/62 24/68/55 68/117/88 97/116/97
f 97/116/97 68/117/88 14/118/45 47/119/48
f 65/96/83 97/116/97 47/119/48 13/44/44
f 11/40/40 72/111/95 98/120/98 44/121/41
f 72/111/95 19/29/29 41/35/35 98/120/98
f 98/120/98 41/35/35 26/34/34 66/122/85
f 44/121/41 98/120/98 66/122/85 12/123/42
